<?xml version="1.0" encoding="UTF-8" standalone="no"?><!DOCTYPE svg PUBLIC "-//W3C//DTD SVG 1.1//EN" "http://www.w3.org/Graphics/SVG/1.1/DTD/svg11.dtd"><!-- Generated by graphviz version 2.39.20160930.0541 (20160930.0541) --><!-- Title: FlowChart Pages: 1 --><svg width="617pt" height="390pt" viewBox="0.00 0.00 617 390.19" xmlns="http://www.w3.org/2000/svg" xmlns:xlink="http://www.w3.org/1999/xlink"><defs><radialGradient id="g-terminatorjggnfgnpk" cx="0.5" cy="0.5" fx="0.9" fy="0.9" r="1" x1="0%" x2="0%" y1="100%" y2="0%" spreadMethod="pad"><stop offset="0%" stop-color="#C32F06" stop-opacity="1"/><stop offset="100%" stop-color="#C32F06" stop-opacity="1"/></radialGradient><radialGradient id="g-decisionjggnfgnpk" cx="0.5" cy="0.5" fx="0.9" fy="0.9" r="1" x1="0%" x2="0%" y1="100%" y2="0%" spreadMethod="pad"><stop offset="0%" stop-color="#d1461b" stop-opacity="1"/><stop offset="100%" stop-color="#d1461b" stop-opacity="1"/></radialGradient><radialGradient id="g-processjggnfgnpk" cx="0.5" cy="0.5" fx="0.9" fy="0.9" r="1" x1="0%" x2="0%" y1="100%" y2="0%" spreadMethod="pad"><stop offset="0%" stop-color="#3f51b5" stop-opacity="1"/><stop offset="100%" stop-color="#3f51b5" stop-opacity="1"/></radialGradient><radialGradient id="g-defaultjggnfgnpk" cx="0.5" cy="0.5" fx="0.9" fy="0.9" r="1" x1="0%" x2="0%" y1="100%" y2="0%" spreadMethod="pad"><stop offset="0%" stop-color="#005100" stop-opacity="1"/><stop offset="100%" stop-color="#005100" stop-opacity="1"/></radialGradient><radialGradient id="g-modulejggnfgnpk" cx="0.5" cy="0.5" fx="0.9" fy="0.9" r="1" x1="0%" x2="0%" y1="100%" y2="0%" spreadMethod="pad"><stop offset="0%" stop-color="#009688" stop-opacity="1"/><stop offset="100%" stop-color="#009688" stop-opacity="1"/></radialGradient><radialGradient id="g-dataiojggnfgnpk" cx="0.5" cy="0.5" fx="0.9" fy="0.9" r="1" x1="0%" x2="0%" y1="100%" y2="0%" spreadMethod="pad"><stop offset="0%" stop-color="#607d8b" stop-opacity="1"/><stop offset="100%" stop-color="#607d8b" stop-opacity="1"/></radialGradient><radialGradient id="g-preparationjggnfgnpk" cx="0.5" cy="0.5" fx="0.9" fy="0.9" r="1" x1="0%" x2="0%" y1="100%" y2="0%" spreadMethod="pad"><stop offset="0%" stop-color="#607d8b" stop-opacity="1"/><stop offset="100%" stop-color="#607d8b" stop-opacity="1"/></radialGradient><radialGradient id="g-commentjggnfgnpk" cx="0.5" cy="0.5" fx="0.9" fy="0.9" r="1" x1="0%" x2="0%" y1="100%" y2="0%" spreadMethod="pad"><stop offset="0%" stop-color="#ffab40" stop-opacity="1"/><stop offset="100%" stop-color="#ffab40" stop-opacity="1"/></radialGradient><radialGradient id="g-manualjggnfgnpk" cx="0.5" cy="0.5" fx="0.9" fy="0.9" r="1" x1="0%" x2="0%" y1="100%" y2="0%" spreadMethod="pad"><stop offset="0%" stop-color="#673ab7" stop-opacity="1"/><stop offset="100%" stop-color="#673ab7" stop-opacity="1"/></radialGradient></defs><g id="page0,1_graph0" class="graph" transform="scale(0.832653 0.832653) rotate(0) translate(4 458.6)"><title>FlowChart</title><!-- terminator_block_1 --><g id="node1" class="node"><title>terminator_block_1</title><ellipse fill="url(#g-terminatorjggnfgnpk)" stroke="#C32F06" cx="535.5" cy="-436.6" rx="76.5524" ry="18"/><text text-anchor="start" x="478.5" y="-434.1" font-family="Open Sans, Noto Sans SC, Noto Sans TC, Noto Sans JP, Noto Sans KR" font-size="10.00" fill="white">public String statement()</text></g><!-- process_block_2 --><g id="node2" class="node"><title>process_block_2</title><polygon fill="url(#g-processjggnfgnpk)" stroke="#3f51b5" points="639.5,-391.6 431.5,-391.6 431.5,-355.6 639.5,-355.6 639.5,-391.6"/><text text-anchor="start" x="438.5" y="-371.1" font-family="Open Sans, Noto Sans SC, Noto Sans TC, Noto Sans JP, Noto Sans KR" font-size="10.00" fill="white">Enumeration rentals = _rentals.elements()</text></g><!-- terminator_block_1&#45;&gt;process_block_2 --><g id="edge1" class="edge"><title>terminator_block_1->process_block_2</title><path fill="none" stroke="#000000" d="M535.5,-418.378C535.5,-413.329 535.5,-407.723 535.5,-402.234"/><polygon fill="#000000" stroke="#000000" points="539,-401.999 535.5,-392 532,-402 539,-401.999"/></g><!-- nop_block_3 --><g id="node3" class="node"><title>nop_block_3</title><ellipse fill="#000000" stroke="#000000" cx="535.5" cy="-326.8" rx="1.8" ry="1.8"/><text text-anchor="start" x="531.7" y="-332.6" font-family="Open Sans, Noto Sans SC, Noto Sans TC, Noto Sans JP, Noto Sans KR" font-weight="bold" font-size="10.00" fill="#000000"> </text></g><!-- process_block_2&#45;&gt;nop_block_3 --><g id="edge2" class="edge"><title>process_block_2->nop_block_3</title><path fill="none" stroke="#000000" d="M535.5,-355.372C535.5,-345.106 535.5,-333.442 535.5,-328.83"/></g><!-- ifs_block_4 --><g id="node4" class="node"><title>ifs_block_4</title><polygon fill="url(#g-decisionjggnfgnpk)" stroke="#d1461b" points="392.5,-298 275.236,-280 392.5,-262 509.764,-280 392.5,-298"/><text text-anchor="start" x="330" y="-277.5" font-family="Open Sans, Noto Sans SC, Noto Sans TC, Noto Sans JP, Noto Sans KR" font-size="10.00" fill="white">rentals.hasMoreElements()</text></g><!-- nop_block_3&#45;&gt;ifs_block_4 --><g id="edge7" class="edge"><title>nop_block_3->ifs_block_4</title><path fill="none" stroke="#000000" d="M533.479,-326.138C523.288,-322.803 476.589,-307.52 439.692,-295.445"/><polygon fill="#000000" stroke="#000000" points="440.661,-292.079 430.069,-292.295 438.484,-298.732 440.661,-292.079"/></g><!-- process_block_5 --><g id="node5" class="node"><title>process_block_5</title><polygon fill="url(#g-processjggnfgnpk)" stroke="#3f51b5" points="308.5,-225 0.5,-225 0.5,-189 308.5,-189 308.5,-225"/><text text-anchor="start" x="7.5" y="-204.5" font-family="Open Sans, Noto Sans SC, Noto Sans TC, Noto Sans JP, Noto Sans KR" font-size="10.00" fill="white">RentalExample2 each = (RentalExample2) rentals.nextElement()</text></g><!-- ifs_block_4&#45;&gt;process_block_5 --><g id="edge3" class="edge"><title>ifs_block_4->process_block_5</title><path fill="none" stroke="#000000" d="M353.199,-267.946C317.923,-257.125 265.353,-241.001 223.146,-228.055"/><polygon fill="#000000" stroke="#000000" points="224.071,-224.678 213.484,-225.092 222.018,-231.37 224.071,-224.678"/><text text-anchor="start" x="288.5" y="-242" font-family="Open Sans, Noto Sans SC, Noto Sans TC, Noto Sans JP, Noto Sans KR" font-weight="bold" font-size="10.00" fill="#000000"> True </text><polyline fill="none" stroke="#000000" points="316.5,-238 256.312,-238 "/></g><!-- process_block_9 --><g id="node9" class="node"><title>process_block_9</title><polygon fill="url(#g-processjggnfgnpk)" stroke="#3f51b5" points="509,-225 374,-225 374,-189 509,-189 509,-225"/><text text-anchor="start" x="381" y="-204.5" font-family="Open Sans, Noto Sans SC, Noto Sans TC, Noto Sans JP, Noto Sans KR" font-size="10.00" fill="white">resultfooterLineMessage()</text></g><!-- ifs_block_4&#45;&gt;process_block_9 --><g id="edge9" class="edge"><title>ifs_block_4->process_block_9</title><path fill="none" stroke="#000000" d="M403.619,-263.435C409.559,-254.585 417.013,-243.48 423.734,-233.467"/><polygon fill="#000000" stroke="#000000" points="426.728,-235.287 429.395,-225.033 420.916,-231.386 426.728,-235.287"/><text text-anchor="start" x="420.5" y="-242" font-family="Open Sans, Noto Sans SC, Noto Sans TC, Noto Sans JP, Noto Sans KR" font-weight="bold" font-size="10.00" fill="#000000"> False </text><polyline fill="none" stroke="#000000" points="450.5,-238 421.184,-238 "/></g><!-- process_block_6 --><g id="node6" class="node"><title>process_block_6</title><polygon fill="url(#g-processjggnfgnpk)" stroke="#3f51b5" points="343,-162 2.84217e-14,-162 2.84217e-14,-126 343,-126 343,-162"/><text text-anchor="start" x="7" y="-141.5" font-family="Open Sans, Noto Sans SC, Noto Sans TC, Noto Sans JP, Noto Sans KR" font-size="10.00" fill="white">double thisAmount = each.determineAmount(frequentRenterPoints++)</text></g><!-- process_block_5&#45;&gt;process_block_6 --><g id="edge4" class="edge"><title>process_block_5->process_block_6</title><path fill="none" stroke="#000000" d="M159.417,-188.778C160.814,-183.599 162.37,-177.835 163.887,-172.212"/><polygon fill="#000000" stroke="#000000" points="167.309,-172.966 166.535,-162.4 160.551,-171.142 167.309,-172.966"/></g><!-- process_block_7 --><g id="node7" class="node"><title>process_block_7</title><polygon fill="url(#g-processjggnfgnpk)" stroke="#3f51b5" points="443,-99 300,-99 300,-63 443,-63 443,-99"/><text text-anchor="start" x="307" y="-78.5" font-family="Open Sans, Noto Sans SC, Noto Sans TC, Noto Sans JP, Noto Sans KR" font-size="10.00" fill="white">totalAmount += thisAmount</text></g><!-- process_block_6&#45;&gt;process_block_7 --><g id="edge5" class="edge"><title>process_block_6->process_block_7</title><path fill="none" stroke="#000000" d="M228.812,-125.947C252.453,-118.5 280.013,-109.818 304.574,-102.082"/><polygon fill="#000000" stroke="#000000" points="305.693,-105.399 314.18,-99.0559 303.59,-98.7221 305.693,-105.399"/></g><!-- process_block_8 --><g id="node8" class="node"><title>process_block_8</title><polygon fill="url(#g-processjggnfgnpk)" stroke="#3f51b5" points="727,-36 334,-36 334,-0 727,-0 727,-36"/><text text-anchor="start" x="341" y="-15.5" font-family="Open Sans, Noto Sans SC, Noto Sans TC, Noto Sans JP, Noto Sans KR" font-size="10.00" fill="white">_result += "\t" + each.getMovie().getTitle()+ "\t" + String.valueOf(thisAmount) + "\n"</text></g><!-- process_block_7&#45;&gt;process_block_8 --><g id="edge6" class="edge"><title>process_block_7->process_block_8</title><path fill="none" stroke="#000000" d="M417.063,-62.9467C435.276,-55.7304 456.414,-47.3549 475.473,-39.8033"/><polygon fill="#000000" stroke="#000000" points="476.923,-42.9935 484.93,-36.0559 474.344,-36.4857 476.923,-42.9935"/></g><!-- process_block_8&#45;&gt;nop_block_3 --><g id="edge8" class="edge"><title>process_block_8->nop_block_3</title><path fill="none" stroke="#000000" d="M574.845,-36.2052C591.962,-46.4062 607.5,-61.1368 607.5,-81 607.5,-280 607.5,-280 607.5,-280 607.5,-308.262 568.019,-320.331 547.528,-324.691"/><polygon fill="#000000" stroke="#000000" points="546.784,-321.269 537.577,-326.511 548.044,-328.154 546.784,-321.269"/></g><!-- terminator_block_10 --><g id="node10" class="node"><title>terminator_block_10</title><ellipse fill="url(#g-terminatorjggnfgnpk)" stroke="#C32F06" cx="441.5" cy="-144" rx="27.8353" ry="18"/><text text-anchor="start" x="426" y="-141.5" font-family="Open Sans, Noto Sans SC, Noto Sans TC, Noto Sans JP, Noto Sans KR" font-size="10.00" fill="white">_result</text></g><!-- process_block_9&#45;&gt;terminator_block_10 --><g id="edge10" class="edge"><title>process_block_9->terminator_block_10</title><path fill="none" stroke="#000000" d="M441.5,-188.778C441.5,-183.729 441.5,-178.123 441.5,-172.634"/><polygon fill="#000000" stroke="#000000" points="445,-172.399 441.5,-162.4 438,-172.4 445,-172.399"/></g></g></svg>