<?xml version="1.0" encoding="UTF-8" standalone="no"?><!DOCTYPE svg PUBLIC "-//W3C//DTD SVG 1.1//EN" "http://www.w3.org/Graphics/SVG/1.1/DTD/svg11.dtd"><!-- Generated by graphviz version 2.39.20160930.0541 (20160930.0541) --><!-- Title: FlowChart Pages: 1 --><svg width="617pt" height="603pt" viewBox="0.00 0.00 617 602.93" xmlns="http://www.w3.org/2000/svg" xmlns:xlink="http://www.w3.org/1999/xlink"><defs><radialGradient id="g-terminatormlfbxmcbh" cx="0.5" cy="0.5" fx="0.9" fy="0.9" r="1" x1="0%" x2="0%" y1="100%" y2="0%" spreadMethod="pad"><stop offset="0%" stop-color="#C32F06" stop-opacity="1"/><stop offset="100%" stop-color="#C32F06" stop-opacity="1"/></radialGradient><radialGradient id="g-decisionmlfbxmcbh" cx="0.5" cy="0.5" fx="0.9" fy="0.9" r="1" x1="0%" x2="0%" y1="100%" y2="0%" spreadMethod="pad"><stop offset="0%" stop-color="#d1461b" stop-opacity="1"/><stop offset="100%" stop-color="#d1461b" stop-opacity="1"/></radialGradient><radialGradient id="g-processmlfbxmcbh" cx="0.5" cy="0.5" fx="0.9" fy="0.9" r="1" x1="0%" x2="0%" y1="100%" y2="0%" spreadMethod="pad"><stop offset="0%" stop-color="#3f51b5" stop-opacity="1"/><stop offset="100%" stop-color="#3f51b5" stop-opacity="1"/></radialGradient><radialGradient id="g-defaultmlfbxmcbh" cx="0.5" cy="0.5" fx="0.9" fy="0.9" r="1" x1="0%" x2="0%" y1="100%" y2="0%" spreadMethod="pad"><stop offset="0%" stop-color="#005100" stop-opacity="1"/><stop offset="100%" stop-color="#005100" stop-opacity="1"/></radialGradient><radialGradient id="g-modulemlfbxmcbh" cx="0.5" cy="0.5" fx="0.9" fy="0.9" r="1" x1="0%" x2="0%" y1="100%" y2="0%" spreadMethod="pad"><stop offset="0%" stop-color="#009688" stop-opacity="1"/><stop offset="100%" stop-color="#009688" stop-opacity="1"/></radialGradient><radialGradient id="g-dataiomlfbxmcbh" cx="0.5" cy="0.5" fx="0.9" fy="0.9" r="1" x1="0%" x2="0%" y1="100%" y2="0%" spreadMethod="pad"><stop offset="0%" stop-color="#607d8b" stop-opacity="1"/><stop offset="100%" stop-color="#607d8b" stop-opacity="1"/></radialGradient><radialGradient id="g-preparationmlfbxmcbh" cx="0.5" cy="0.5" fx="0.9" fy="0.9" r="1" x1="0%" x2="0%" y1="100%" y2="0%" spreadMethod="pad"><stop offset="0%" stop-color="#607d8b" stop-opacity="1"/><stop offset="100%" stop-color="#607d8b" stop-opacity="1"/></radialGradient><radialGradient id="g-commentmlfbxmcbh" cx="0.5" cy="0.5" fx="0.9" fy="0.9" r="1" x1="0%" x2="0%" y1="100%" y2="0%" spreadMethod="pad"><stop offset="0%" stop-color="#ffab40" stop-opacity="1"/><stop offset="100%" stop-color="#ffab40" stop-opacity="1"/></radialGradient><radialGradient id="g-manualmlfbxmcbh" cx="0.5" cy="0.5" fx="0.9" fy="0.9" r="1" x1="0%" x2="0%" y1="100%" y2="0%" spreadMethod="pad"><stop offset="0%" stop-color="#673ab7" stop-opacity="1"/><stop offset="100%" stop-color="#673ab7" stop-opacity="1"/></radialGradient></defs><g id="page0,1_graph0" class="graph" transform="scale(0.516522 0.516522) rotate(0) translate(4 1153.6)"><title>FlowChart</title><!-- terminator_block_1 --><g id="node1" class="node"><title>terminator_block_1</title><ellipse fill="url(#g-terminatormlfbxmcbh)" stroke="#C32F06" cx="136" cy="-1131.6" rx="76.5524" ry="18"/><text text-anchor="start" x="79" y="-1129.1" font-family="Open Sans, Noto Sans SC, Noto Sans TC, Noto Sans JP, Noto Sans KR" font-size="10.00" fill="white">public String statement()</text></g><!-- process_block_2 --><g id="node2" class="node"><title>process_block_2</title><polygon fill="url(#g-processmlfbxmcbh)" stroke="#3f51b5" points="198,-1086.6 74,-1086.6 74,-1050.6 198,-1050.6 198,-1086.6"/><text text-anchor="start" x="81" y="-1066.1" font-family="Open Sans, Noto Sans SC, Noto Sans TC, Noto Sans JP, Noto Sans KR" font-size="10.00" fill="white">double totalAmount = 0</text></g><!-- terminator_block_1&#45;&gt;process_block_2 --><g id="edge1" class="edge"><title>terminator_block_1->process_block_2</title><path fill="none" stroke="#000000" d="M136,-1113.38C136,-1108.33 136,-1102.72 136,-1097.23"/><polygon fill="#000000" stroke="#000000" points="139.5,-1097 136,-1087 132.5,-1097 139.5,-1097"/></g><!-- process_block_3 --><g id="node3" class="node"><title>process_block_3</title><polygon fill="url(#g-processmlfbxmcbh)" stroke="#3f51b5" points="209,-1023.6 63,-1023.6 63,-987.6 209,-987.6 209,-1023.6"/><text text-anchor="start" x="70" y="-1003.1" font-family="Open Sans, Noto Sans SC, Noto Sans TC, Noto Sans JP, Noto Sans KR" font-size="10.00" fill="white">int frequentRenterPoints = 0</text></g><!-- process_block_2&#45;&gt;process_block_3 --><g id="edge2" class="edge"><title>process_block_2->process_block_3</title><path fill="none" stroke="#000000" d="M136,-1050.38C136,-1045.33 136,-1039.72 136,-1034.23"/><polygon fill="#000000" stroke="#000000" points="139.5,-1034 136,-1024 132.5,-1034 139.5,-1034"/></g><!-- process_block_4 --><g id="node4" class="node"><title>process_block_4</title><polygon fill="url(#g-processmlfbxmcbh)" stroke="#3f51b5" points="240,-960.6 32,-960.6 32,-924.6 240,-924.6 240,-960.6"/><text text-anchor="start" x="39" y="-940.1" font-family="Open Sans, Noto Sans SC, Noto Sans TC, Noto Sans JP, Noto Sans KR" font-size="10.00" fill="white">Enumeration rentals = _rentals.elements()</text></g><!-- process_block_3&#45;&gt;process_block_4 --><g id="edge3" class="edge"><title>process_block_3->process_block_4</title><path fill="none" stroke="#000000" d="M136,-987.378C136,-982.329 136,-976.723 136,-971.234"/><polygon fill="#000000" stroke="#000000" points="139.5,-970.999 136,-961 132.5,-971 139.5,-970.999"/></g><!-- process_block_5 --><g id="node5" class="node"><title>process_block_5</title><polygon fill="url(#g-processmlfbxmcbh)" stroke="#3f51b5" points="266.5,-897.6 5.5,-897.6 5.5,-861.6 266.5,-861.6 266.5,-897.6"/><text text-anchor="start" x="12.5" y="-877.1" font-family="Open Sans, Noto Sans SC, Noto Sans TC, Noto Sans JP, Noto Sans KR" font-size="10.00" fill="white">String result = "Rental Record for " + getName() + "\n"</text></g><!-- process_block_4&#45;&gt;process_block_5 --><g id="edge4" class="edge"><title>process_block_4->process_block_5</title><path fill="none" stroke="#000000" d="M136,-924.378C136,-919.329 136,-913.723 136,-908.234"/><polygon fill="#000000" stroke="#000000" points="139.5,-907.999 136,-898 132.5,-908 139.5,-907.999"/></g><!-- nop_block_6 --><g id="node6" class="node"><title>nop_block_6</title><ellipse fill="#000000" stroke="#000000" cx="136" cy="-832.8" rx="1.8" ry="1.8"/><text text-anchor="start" x="132.2" y="-838.6" font-family="Open Sans, Noto Sans SC, Noto Sans TC, Noto Sans JP, Noto Sans KR" font-weight="bold" font-size="10.00" fill="#000000"> </text></g><!-- process_block_5&#45;&gt;nop_block_6 --><g id="edge5" class="edge"><title>process_block_5->nop_block_6</title><path fill="none" stroke="#000000" d="M136,-861.372C136,-851.106 136,-839.442 136,-834.83"/></g><!-- ifs_block_7 --><g id="node7" class="node"><title>ifs_block_7</title><polygon fill="url(#g-decisionmlfbxmcbh)" stroke="#d1461b" points="475,-804 357.736,-786 475,-768 592.264,-786 475,-804"/><text text-anchor="start" x="412.5" y="-783.5" font-family="Open Sans, Noto Sans SC, Noto Sans TC, Noto Sans JP, Noto Sans KR" font-size="10.00" fill="white">rentals.hasMoreElements()</text></g><!-- nop_block_6&#45;&gt;ifs_block_7 --><g id="edge26" class="edge"><title>nop_block_6->ifs_block_7</title><path fill="none" stroke="#000000" d="M137.824,-832.548C156.228,-830.008 309.641,-808.828 403.073,-795.93"/><polygon fill="#000000" stroke="#000000" points="403.61,-799.389 413.038,-794.554 402.653,-792.455 403.61,-799.389"/></g><!-- process_block_8 --><g id="node8" class="node"><title>process_block_8</title><polygon fill="url(#g-processmlfbxmcbh)" stroke="#3f51b5" points="535,-731 415,-731 415,-695 535,-695 535,-731"/><text text-anchor="start" x="422" y="-710.5" font-family="Open Sans, Noto Sans SC, Noto Sans TC, Noto Sans JP, Noto Sans KR" font-size="10.00" fill="white">double thisAmount = 0</text></g><!-- ifs_block_7&#45;&gt;process_block_8 --><g id="edge6" class="edge"><title>ifs_block_7->process_block_8</title><path fill="none" stroke="#000000" d="M475,-767.955C475,-759.883 475,-750.176 475,-741.182"/><polygon fill="#000000" stroke="#000000" points="478.5,-741.09 475,-731.09 471.5,-741.09 478.5,-741.09"/><text text-anchor="start" x="475" y="-748" font-family="Open Sans, Noto Sans SC, Noto Sans TC, Noto Sans JP, Noto Sans KR" font-weight="bold" font-size="10.00" fill="#000000"> True </text><polyline fill="none" stroke="#000000" points="503,-744 475,-744 "/></g><!-- process_block_23 --><g id="node23" class="node"><title>process_block_23</title><polygon fill="url(#g-processmlfbxmcbh)" stroke="#3f51b5" points="937.5,-731 624.5,-731 624.5,-695 937.5,-695 937.5,-731"/><text text-anchor="start" x="631.5" y="-710.5" font-family="Open Sans, Noto Sans SC, Noto Sans TC, Noto Sans JP, Noto Sans KR" font-size="10.00" fill="white">result += "Amount owed is " + String.valueOf(totalAmount) + "\n"</text></g><!-- ifs_block_7&#45;&gt;process_block_23 --><g id="edge28" class="edge"><title>ifs_block_7->process_block_23</title><path fill="none" stroke="#000000" d="M521.143,-774.992C567.134,-764.02 638.854,-746.911 695.307,-733.443"/><polygon fill="#000000" stroke="#000000" points="696.386,-736.784 705.301,-731.059 694.762,-729.975 696.386,-736.784"/><text text-anchor="start" x="647" y="-748" font-family="Open Sans, Noto Sans SC, Noto Sans TC, Noto Sans JP, Noto Sans KR" font-weight="bold" font-size="10.00" fill="#000000"> False </text><polyline fill="none" stroke="#000000" points="677,-744 650.745,-744 "/></g><!-- process_block_9 --><g id="node9" class="node"><title>process_block_9</title><polygon fill="url(#g-processmlfbxmcbh)" stroke="#3f51b5" points="583,-668 367,-668 367,-632 583,-632 583,-668"/><text text-anchor="start" x="374" y="-647.5" font-family="Open Sans, Noto Sans SC, Noto Sans TC, Noto Sans JP, Noto Sans KR" font-size="10.00" fill="white">Rental each = (Rental) rentals.nextElement()</text></g><!-- process_block_8&#45;&gt;process_block_9 --><g id="edge7" class="edge"><title>process_block_8->process_block_9</title><path fill="none" stroke="#000000" d="M475,-694.778C475,-689.729 475,-684.123 475,-678.634"/><polygon fill="#000000" stroke="#000000" points="478.5,-678.399 475,-668.4 471.5,-678.4 478.5,-678.399"/></g><!-- switch_block_10 --><g id="node10" class="node"><title>switch_block_10</title><polygon fill="url(#g-decisionmlfbxmcbh)" stroke="#d1461b" points="475,-605 342.766,-587 475,-569 607.234,-587 475,-605"/><text text-anchor="start" x="403.5" y="-584.5" font-family="Open Sans, Noto Sans SC, Noto Sans TC, Noto Sans JP, Noto Sans KR" font-size="10.00" fill="white">each.getMovie().getPriceCode()</text></g><!-- process_block_9&#45;&gt;switch_block_10 --><g id="edge8" class="edge"><title>process_block_9->switch_block_10</title><path fill="none" stroke="#000000" d="M475,-631.778C475,-626.729 475,-621.123 475,-615.634"/><polygon fill="#000000" stroke="#000000" points="478.5,-615.399 475,-605.4 471.5,-615.4 478.5,-615.399"/></g><!-- process_block_11 --><g id="node11" class="node"><title>process_block_11</title><polygon fill="url(#g-processmlfbxmcbh)" stroke="#3f51b5" points="742,-532 652,-532 652,-496 742,-496 742,-532"/><text text-anchor="start" x="659" y="-511.5" font-family="Open Sans, Noto Sans SC, Noto Sans TC, Noto Sans JP, Noto Sans KR" font-size="10.00" fill="white">thisAmount += 2</text></g><!-- switch_block_10&#45;&gt;process_block_11 --><g id="edge9" class="edge"><title>switch_block_10->process_block_11</title><path fill="none" stroke="#000000" d="M515.158,-574.313C532.639,-568.752 553.352,-562.112 572,-556 595.016,-548.456 620.357,-539.974 642.171,-532.618"/><polygon fill="#000000" stroke="#000000" points="643.569,-535.84 651.924,-529.325 641.33,-529.208 643.569,-535.84"/><text text-anchor="start" x="603" y="-549" font-family="Open Sans, Noto Sans SC, Noto Sans TC, Noto Sans JP, Noto Sans KR" font-weight="bold" font-size="10.00" fill="#000000"> Movie.REGULAR </text><polyline fill="none" stroke="#000000" points="687,-545 607.536,-545 "/></g><!-- process_block_14 --><g id="node14" class="node"><title>process_block_14</title><polygon fill="url(#g-processmlfbxmcbh)" stroke="#3f51b5" points="1171,-483 975,-483 975,-447 1171,-447 1171,-483"/><text text-anchor="start" x="982" y="-463.5" font-family="Open Sans, Noto Sans SC, Noto Sans TC, Noto Sans JP, Noto Sans KR" font-size="10.00" fill="white">thisAmount += each.getDaysRented() </text><text text-anchor="start" x="1156" y="-463.5" font-family="Open Sans, Noto Sans SC, Noto Sans TC, Noto Sans JP, Noto Sans KR" font-style="italic" font-size="10.00" fill="white"> 3</text></g><!-- switch_block_10&#45;&gt;process_block_14 --><g id="edge12" class="edge"><title>switch_block_10->process_block_14</title><path fill="none" stroke="#000000" d="M548.738,-578.984C593.54,-573.616 651.788,-565.751 703,-556 806.548,-536.285 924.542,-505.856 998.88,-485.689"/><polygon fill="#000000" stroke="#000000" points="999.894,-489.041 1008.62,-483.037 998.055,-482.286 999.894,-489.041"/><text text-anchor="start" x="754" y="-549" font-family="Open Sans, Noto Sans SC, Noto Sans TC, Noto Sans JP, Noto Sans KR" font-weight="bold" font-size="10.00" fill="#000000"> Movie.NEW_RELEASE </text><polyline fill="none" stroke="#000000" points="861,-545 757.377,-545 "/></g><!-- process_block_15 --><g id="node15" class="node"><title>process_block_15</title><polygon fill="url(#g-processmlfbxmcbh)" stroke="#3f51b5" points="493.5,-532 394.5,-532 394.5,-496 493.5,-496 493.5,-532"/><text text-anchor="start" x="401.5" y="-511.5" font-family="Open Sans, Noto Sans SC, Noto Sans TC, Noto Sans JP, Noto Sans KR" font-size="10.00" fill="white">thisAmount += 1.5</text></g><!-- switch_block_10&#45;&gt;process_block_15 --><g id="edge13" class="edge"><title>switch_block_10->process_block_15</title><path fill="none" stroke="#000000" d="M467.653,-569.7C464.092,-561.314 459.728,-551.037 455.722,-541.604"/><polygon fill="#000000" stroke="#000000" points="458.857,-540.031 451.726,-532.194 452.414,-542.767 458.857,-540.031"/><text text-anchor="start" x="462" y="-549" font-family="Open Sans, Noto Sans SC, Noto Sans TC, Noto Sans JP, Noto Sans KR" font-weight="bold" font-size="10.00" fill="#000000"> Movie.CHILDRENS </text><polyline fill="none" stroke="#000000" points="556,-545 457.239,-545 "/></g><!-- ifs_block_12 --><g id="node12" class="node"><title>ifs_block_12</title><polygon fill="url(#g-decisionmlfbxmcbh)" stroke="#d1461b" points="710,-434 599.056,-416 710,-398 820.944,-416 710,-434"/><text text-anchor="start" x="651.5" y="-413.5" font-family="Open Sans, Noto Sans SC, Noto Sans TC, Noto Sans JP, Noto Sans KR" font-size="10.00" fill="white">each.getDaysRented() > 2</text></g><!-- process_block_11&#45;&gt;ifs_block_12 --><g id="edge10" class="edge"><title>process_block_11->ifs_block_12</title><path fill="none" stroke="#000000" d="M699.445,-495.567C701.376,-481.012 704.101,-460.467 706.299,-443.9"/><polygon fill="#000000" stroke="#000000" points="709.808,-444.064 707.653,-433.69 702.869,-443.143 709.808,-444.064"/></g><!-- process_block_13 --><g id="node13" class="node"><title>process_block_13</title><polygon fill="url(#g-processmlfbxmcbh)" stroke="#3f51b5" points="771,-361 547,-361 547,-325 771,-325 771,-361"/><text text-anchor="start" x="554" y="-341.5" font-family="Open Sans, Noto Sans SC, Noto Sans TC, Noto Sans JP, Noto Sans KR" font-size="10.00" fill="white">thisAmount += (each.getDaysRented() - 2) </text><text text-anchor="start" x="748" y="-341.5" font-family="Open Sans, Noto Sans SC, Noto Sans TC, Noto Sans JP, Noto Sans KR" font-style="italic" font-size="10.00" fill="white"> 1.5</text></g><!-- ifs_block_12&#45;&gt;process_block_13 --><g id="edge11" class="edge"><title>ifs_block_12->process_block_13</title><path fill="none" stroke="#000000" d="M698.681,-399.799C692.508,-390.962 684.708,-379.798 677.661,-369.711"/><polygon fill="#000000" stroke="#000000" points="680.318,-367.402 671.721,-361.209 674.579,-371.411 680.318,-367.402"/><text text-anchor="start" x="688" y="-378" font-family="Open Sans, Noto Sans SC, Noto Sans TC, Noto Sans JP, Noto Sans KR" font-weight="bold" font-size="10.00" fill="#000000"> True </text><polyline fill="none" stroke="#000000" points="716,-374 680.334,-374 "/></g><!-- process_block_18 --><g id="node18" class="node"><title>process_block_18</title><polygon fill="url(#g-processmlfbxmcbh)" stroke="#3f51b5" points="848,-298 720,-298 720,-262 848,-262 848,-298"/><text text-anchor="start" x="727" y="-277.5" font-family="Open Sans, Noto Sans SC, Noto Sans TC, Noto Sans JP, Noto Sans KR" font-size="10.00" fill="white">frequentRenterPoints ++</text></g><!-- ifs_block_12&#45;&gt;process_block_18 --><g id="edge17" class="edge"><title>ifs_block_12->process_block_18</title><path fill="none" stroke="#000000" d="M748.054,-403.941C768.216,-395.391 791.197,-381.693 803,-361 812.392,-344.533 807.161,-323.662 799.831,-307.229"/><polygon fill="#000000" stroke="#000000" points="802.915,-305.569 795.368,-298.134 796.631,-308.653 802.915,-305.569"/><text text-anchor="start" x="809" y="-341.5" font-family="Open Sans, Noto Sans SC, Noto Sans TC, Noto Sans JP, Noto Sans KR" font-weight="bold" font-size="10.00" fill="#000000"> False </text><polyline fill="none" stroke="#000000" points="839,-337.5 807.979,-337.5 "/></g><!-- process_block_13&#45;&gt;process_block_18 --><g id="edge16" class="edge"><title>process_block_13->process_block_18</title><path fill="none" stroke="#000000" d="M694.82,-324.947C708.55,-318.027 724.394,-310.041 738.884,-302.738"/><polygon fill="#000000" stroke="#000000" points="740.82,-305.682 748.175,-298.056 737.67,-299.431 740.82,-305.682"/></g><!-- process_block_14&#45;&gt;process_block_18 --><g id="edge18" class="edge"><title>process_block_14->process_block_18</title><path fill="none" stroke="#000000" d="M1100.35,-446.847C1139.05,-419.002 1201.38,-364.797 1166,-325 1145.95,-302.451 963.818,-289.312 858.45,-283.535"/><polygon fill="#000000" stroke="#000000" points="858.361,-280.025 848.188,-282.982 857.985,-287.015 858.361,-280.025"/></g><!-- ifs_block_16 --><g id="node16" class="node"><title>ifs_block_16</title><polygon fill="url(#g-decisionmlfbxmcbh)" stroke="#d1461b" points="424,-434 313.056,-416 424,-398 534.944,-416 424,-434"/><text text-anchor="start" x="365.5" y="-413.5" font-family="Open Sans, Noto Sans SC, Noto Sans TC, Noto Sans JP, Noto Sans KR" font-size="10.00" fill="white">each.getDaysRented() > 3</text></g><!-- process_block_15&#45;&gt;ifs_block_16 --><g id="edge14" class="edge"><title>process_block_15->ifs_block_16</title><path fill="none" stroke="#000000" d="M440.238,-495.567C437.268,-481.012 433.075,-460.467 429.694,-443.9"/><polygon fill="#000000" stroke="#000000" points="433.039,-442.788 427.61,-433.69 426.181,-444.188 433.039,-442.788"/></g><!-- process_block_17 --><g id="node17" class="node"><title>process_block_17</title><polygon fill="url(#g-processmlfbxmcbh)" stroke="#3f51b5" points="322,-361 98,-361 98,-325 322,-325 322,-361"/><text text-anchor="start" x="105" y="-341.5" font-family="Open Sans, Noto Sans SC, Noto Sans TC, Noto Sans JP, Noto Sans KR" font-size="10.00" fill="white">thisAmount += (each.getDaysRented() - 3) </text><text text-anchor="start" x="299" y="-341.5" font-family="Open Sans, Noto Sans SC, Noto Sans TC, Noto Sans JP, Noto Sans KR" font-style="italic" font-size="10.00" fill="white"> 1.5</text></g><!-- ifs_block_16&#45;&gt;process_block_17 --><g id="edge15" class="edge"><title>ifs_block_16->process_block_17</title><path fill="none" stroke="#000000" d="M388.181,-403.781C356.724,-393.051 310.246,-377.196 272.646,-364.37"/><polygon fill="#000000" stroke="#000000" points="273.39,-360.926 262.796,-361.01 271.13,-367.551 273.39,-360.926"/><text text-anchor="start" x="330" y="-378" font-family="Open Sans, Noto Sans SC, Noto Sans TC, Noto Sans JP, Noto Sans KR" font-weight="bold" font-size="10.00" fill="#000000"> True </text><polyline fill="none" stroke="#000000" points="358,-374 302.137,-374 "/></g><!-- ifs_block_16&#45;&gt;process_block_18 --><g id="edge20" class="edge"><title>ifs_block_16->process_block_18</title><path fill="none" stroke="#000000" d="M430.234,-398.622C438.818,-377.426 456.424,-342.291 484,-325 561.112,-276.649 597.115,-312.308 687,-298 694.409,-296.821 702.123,-295.518 709.821,-294.168"/><polygon fill="#000000" stroke="#000000" points="710.671,-297.572 719.903,-292.374 709.444,-290.68 710.671,-297.572"/><text text-anchor="start" x="484" y="-341.5" font-family="Open Sans, Noto Sans SC, Noto Sans TC, Noto Sans JP, Noto Sans KR" font-weight="bold" font-size="10.00" fill="#000000"> False </text><polyline fill="none" stroke="#000000" points="514,-337.5 468.422,-337.5 "/></g><!-- process_block_17&#45;&gt;process_block_18 --><g id="edge19" class="edge"><title>process_block_17->process_block_18</title><path fill="none" stroke="#000000" d="M304.916,-324.963C336.061,-319.661 370.912,-314.383 403,-311 528.658,-297.754 561.475,-312.45 687,-298 694.394,-297.149 702.074,-296.068 709.728,-294.86"/><polygon fill="#000000" stroke="#000000" points="710.452,-298.288 719.749,-293.207 709.313,-291.381 710.452,-298.288"/></g><!-- ifs_block_19 --><g id="node19" class="node"><title>ifs_block_19</title><polygon fill="url(#g-decisionmlfbxmcbh)" stroke="#d1461b" points="636,-235 406.462,-217 636,-199 865.538,-217 636,-235"/><text text-anchor="start" x="506" y="-214.5" font-family="Open Sans, Noto Sans SC, Noto Sans TC, Noto Sans JP, Noto Sans KR" font-size="10.00" fill="white">(each.getMovie().getPriceCode() == Movie.NEW_RELEASE</text></g><!-- process_block_18&#45;&gt;ifs_block_19 --><g id="edge21" class="edge"><title>process_block_18->ifs_block_19</title><path fill="none" stroke="#000000" d="M741.589,-261.947C722.737,-253.922 700.517,-244.463 681.336,-236.298"/><polygon fill="#000000" stroke="#000000" points="682.477,-232.98 671.905,-232.284 679.735,-239.421 682.477,-232.98"/></g><!-- process_block_20 --><g id="node20" class="node"><title>process_block_20</title><polygon fill="url(#g-processmlfbxmcbh)" stroke="#3f51b5" points="350,-162 98,-162 98,-126 350,-126 350,-162"/><text text-anchor="start" x="217" y="-147" font-family="Open Sans, Noto Sans SC, Noto Sans TC, Noto Sans JP, Noto Sans KR" font-size="10.00" fill="white">&amp;&amp;</text><text text-anchor="start" x="105" y="-136" font-family="Open Sans, Noto Sans SC, Noto Sans TC, Noto Sans JP, Noto Sans KR" font-size="10.00" fill="white">each.getDaysRented() > 1) frequentRenterPoints ++</text></g><!-- ifs_block_19&#45;&gt;process_block_20 --><g id="edge22" class="edge"><title>ifs_block_19->process_block_20</title><path fill="none" stroke="#000000" d="M565.175,-204.451C502.22,-193.296 409.11,-176.799 336.057,-163.855"/><polygon fill="#000000" stroke="#000000" points="336.344,-160.351 325.887,-162.053 335.123,-167.244 336.344,-160.351"/><text text-anchor="start" x="455" y="-179" font-family="Open Sans, Noto Sans SC, Noto Sans TC, Noto Sans JP, Noto Sans KR" font-weight="bold" font-size="10.00" fill="#000000"> True </text><polyline fill="none" stroke="#000000" points="483,-175 393.823,-175 "/></g><!-- process_block_21 --><g id="node21" class="node"><title>process_block_21</title><polygon fill="url(#g-processmlfbxmcbh)" stroke="#3f51b5" points="534.5,-99 303.5,-99 303.5,-63 534.5,-63 534.5,-99"/><text text-anchor="start" x="310.5" y="-84" font-family="Open Sans, Noto Sans SC, Noto Sans TC, Noto Sans JP, Noto Sans KR" font-size="10.00" fill="white">result += "\t" + each.getMovie().getTitle()+ "\t" +</text><text text-anchor="start" x="341.5" y="-73" font-family="Open Sans, Noto Sans SC, Noto Sans TC, Noto Sans JP, Noto Sans KR" font-size="10.00" fill="white">String.valueOf(thisAmount) + "\n"</text></g><!-- ifs_block_19&#45;&gt;process_block_21 --><g id="edge24" class="edge"><title>ifs_block_19->process_block_21</title><path fill="none" stroke="#000000" d="M630.695,-199.135C623.63,-178.452 609.135,-144.822 585,-126 573.732,-117.212 547.684,-108.705 519.484,-101.497"/><polygon fill="#000000" stroke="#000000" points="519.989,-98.0162 509.44,-99.0034 518.302,-104.81 519.989,-98.0162"/><text text-anchor="start" x="614" y="-142.5" font-family="Open Sans, Noto Sans SC, Noto Sans TC, Noto Sans JP, Noto Sans KR" font-weight="bold" font-size="10.00" fill="#000000"> False </text><polyline fill="none" stroke="#000000" points="644,-138.5 597.574,-138.5 "/></g><!-- process_block_20&#45;&gt;process_block_21 --><g id="edge23" class="edge"><title>process_block_20->process_block_21</title><path fill="none" stroke="#000000" d="M279.879,-125.947C302.827,-118.533 329.563,-109.895 353.429,-102.185"/><polygon fill="#000000" stroke="#000000" points="354.673,-105.461 363.113,-99.0559 352.521,-98.7998 354.673,-105.461"/></g><!-- process_block_22 --><g id="node22" class="node"><title>process_block_22</title><polygon fill="url(#g-processmlfbxmcbh)" stroke="#3f51b5" points="193.5,-36 50.5,-36 50.5,-0 193.5,-0 193.5,-36"/><text text-anchor="start" x="57.5" y="-15.5" font-family="Open Sans, Noto Sans SC, Noto Sans TC, Noto Sans JP, Noto Sans KR" font-size="10.00" fill="white">totalAmount += thisAmount</text></g><!-- process_block_21&#45;&gt;process_block_22 --><g id="edge25" class="edge"><title>process_block_21->process_block_22</title><path fill="none" stroke="#000000" d="M333.892,-62.9467C292.878,-54.2468 243.922,-43.8622 203.404,-35.2675"/><polygon fill="#000000" stroke="#000000" points="204.071,-31.8313 193.563,-33.18 202.619,-38.6789 204.071,-31.8313"/></g><!-- process_block_22&#45;&gt;nop_block_6 --><g id="edge27" class="edge"><title>process_block_22->nop_block_6</title><path fill="none" stroke="#000000" d="M50.3264,-29.7967C23.7704,-38.6316 0,-54.0632 0,-81 0,-786 0,-786 0,-786 0,-812.116 90.8025,-826.8 124.017,-831.297"/><polygon fill="#000000" stroke="#000000" points="123.715,-834.787 134.077,-832.579 124.6,-827.843 123.715,-834.787"/></g><!-- process_block_24 --><g id="node24" class="node"><title>process_block_24</title><polygon fill="url(#g-processmlfbxmcbh)" stroke="#3f51b5" points="961.5,-668 648.5,-668 648.5,-632 961.5,-632 961.5,-668"/><text text-anchor="start" x="655.5" y="-653" font-family="Open Sans, Noto Sans SC, Noto Sans TC, Noto Sans JP, Noto Sans KR" font-size="10.00" fill="white">result += "You earned " + String.valueOf(frequentRenterPoints) +</text><text text-anchor="start" x="748" y="-642" font-family="Open Sans, Noto Sans SC, Noto Sans TC, Noto Sans JP, Noto Sans KR" font-size="10.00" fill="white">" frequent renter points"</text></g><!-- process_block_23&#45;&gt;process_block_24 --><g id="edge29" class="edge"><title>process_block_23->process_block_24</title><path fill="none" stroke="#000000" d="M787.942,-694.778C789.964,-689.47 792.221,-683.546 794.413,-677.79"/><polygon fill="#000000" stroke="#000000" points="797.701,-678.99 797.991,-668.4 791.16,-676.498 797.701,-678.99"/></g><!-- terminator_block_25 --><g id="node25" class="node"><title>terminator_block_25</title><ellipse fill="url(#g-terminatormlfbxmcbh)" stroke="#C32F06" cx="805" cy="-587" rx="27" ry="18"/><text text-anchor="start" x="792" y="-584.5" font-family="Open Sans, Noto Sans SC, Noto Sans TC, Noto Sans JP, Noto Sans KR" font-size="10.00" fill="white">result</text></g><!-- process_block_24&#45;&gt;terminator_block_25 --><g id="edge30" class="edge"><title>process_block_24->terminator_block_25</title><path fill="none" stroke="#000000" d="M805,-631.778C805,-626.729 805,-621.123 805,-615.634"/><polygon fill="#000000" stroke="#000000" points="808.5,-615.399 805,-605.4 801.5,-615.4 808.5,-615.399"/></g><!-- comment_block_26 --><g id="node26" class="node"><title>comment_block_26</title><polygon fill="url(#g-commentmlfbxmcbh)" stroke="#ffab40" points="295.5,-668 160.5,-668 160.5,-632 301.5,-632 301.5,-662 295.5,-668"/><polyline fill="white" stroke="#ffab40" points="295.5,-668 295.5,-662 " stroke-width="0"/><polyline fill="white" stroke="#ffab40" points="301.5,-662 295.5,-662 " stroke-width="0"/><text text-anchor="start" x="164.5" y="-653" font-family="Open Sans, Noto Sans SC, Noto Sans TC, Noto Sans JP, Noto Sans KR" font-size="10.00" fill="black">  determine amount for each</text><text text-anchor="start" x="220" y="-642" font-family="Open Sans, Noto Sans SC, Noto Sans TC, Noto Sans JP, Noto Sans KR" font-size="10.00" fill="black">  line</text></g><!-- comment_block_26&#45;&gt;switch_block_10 --><g id="edge31" class="edge"><title>comment_block_26->switch_block_10</title><path fill="none" stroke="#000000" stroke-dasharray="5,2" d="M300.921,-631.947C342.182,-621.293 393.227,-608.113 429.346,-598.788"/></g><!-- comment_block_27 --><g id="node27" class="node"><title>comment_block_27</title><polygon fill="url(#g-commentmlfbxmcbh)" stroke="#ffab40" points="1127.5,-361 996.5,-361 996.5,-325 1133.5,-325 1133.5,-355 1127.5,-361"/><polyline fill="white" stroke="#ffab40" points="1127.5,-361 1127.5,-355 " stroke-width="0"/><polyline fill="white" stroke="#ffab40" points="1133.5,-355 1127.5,-355 " stroke-width="0"/><text text-anchor="start" x="1000.5" y="-340.5" font-family="Open Sans, Noto Sans SC, Noto Sans TC, Noto Sans JP, Noto Sans KR" font-size="10.00" fill="black">  add frequent renter points</text></g><!-- comment_block_27&#45;&gt;process_block_18 --><g id="edge32" class="edge"><title>comment_block_27->process_block_18</title><path fill="none" stroke="#000000" stroke-dasharray="5,2" d="M1004.08,-324.987C986.688,-320.134 967.664,-315.099 950,-311 916.586,-303.247 879.041,-296.105 848.12,-290.636"/></g><!-- comment_block_28 --><g id="node28" class="node"><title>comment_block_28</title><polygon fill="url(#g-commentmlfbxmcbh)" stroke="#ffab40" points="649,-298 507,-298 507,-262 655,-262 655,-292 649,-298"/><polyline fill="white" stroke="#ffab40" points="649,-298 649,-292 " stroke-width="0"/><polyline fill="white" stroke="#ffab40" points="655,-292 649,-292 " stroke-width="0"/><text text-anchor="start" x="511" y="-283" font-family="Open Sans, Noto Sans SC, Noto Sans TC, Noto Sans JP, Noto Sans KR" font-size="10.00" fill="black">  add bonus for a two day new</text><text text-anchor="start" x="546.5" y="-272" font-family="Open Sans, Noto Sans SC, Noto Sans TC, Noto Sans JP, Noto Sans KR" font-size="10.00" fill="black">  release rental</text></g><!-- comment_block_28&#45;&gt;ifs_block_19 --><g id="edge33" class="edge"><title>comment_block_28->ifs_block_19</title><path fill="none" stroke="#000000" stroke-dasharray="5,2" d="M596.908,-261.778C604.522,-253.056 613.588,-242.672 621.071,-234.101"/></g><!-- comment_block_29 --><g id="node29" class="node"><title>comment_block_29</title><polygon fill="url(#g-commentmlfbxmcbh)" stroke="#ffab40" points="547,-162 415,-162 415,-126 553,-126 553,-156 547,-162"/><polyline fill="white" stroke="#ffab40" points="547,-162 547,-156 " stroke-width="0"/><polyline fill="white" stroke="#ffab40" points="553,-156 547,-156 " stroke-width="0"/><text text-anchor="start" x="419" y="-141.5" font-family="Open Sans, Noto Sans SC, Noto Sans TC, Noto Sans JP, Noto Sans KR" font-size="10.00" fill="black">  show figures for this rental</text></g><!-- comment_block_29&#45;&gt;process_block_21 --><g id="edge34" class="edge"><title>comment_block_29->process_block_21</title><path fill="none" stroke="#000000" stroke-dasharray="5,2" d="M465.199,-125.778C456.651,-117.492 446.554,-107.706 437.984,-99.3995"/></g><!-- comment_block_30 --><g id="node30" class="node"><title>comment_block_30</title><polygon fill="url(#g-commentmlfbxmcbh)" stroke="#ffab40" points="818,-804 738,-804 738,-768 824,-768 824,-798 818,-804"/><polyline fill="white" stroke="#ffab40" points="818,-804 818,-798 " stroke-width="0"/><polyline fill="white" stroke="#ffab40" points="824,-798 818,-798 " stroke-width="0"/><text text-anchor="start" x="742" y="-783.5" font-family="Open Sans, Noto Sans SC, Noto Sans TC, Noto Sans JP, Noto Sans KR" font-size="10.00" fill="black">  add footer lines</text></g><!-- comment_block_30&#45;&gt;process_block_23 --><g id="edge35" class="edge"><title>comment_block_30->process_block_23</title><path fill="none" stroke="#000000" stroke-dasharray="5,2" d="M781,-767.955C781,-756.724 781,-742.33 781,-731.09"/></g></g></svg>