<?xml version="1.0" encoding="UTF-8" standalone="no"?><!DOCTYPE svg PUBLIC "-//W3C//DTD SVG 1.1//EN" "http://www.w3.org/Graphics/SVG/1.1/DTD/svg11.dtd"><!-- Generated by graphviz version 2.39.20160930.0541 (20160930.0541) --><!-- Title: FlowChart Pages: 1 --><svg width="599pt" height="657pt" viewBox="0.00 0.00 599 656.6" xmlns="http://www.w3.org/2000/svg" xmlns:xlink="http://www.w3.org/1999/xlink"><defs><radialGradient id="g-terminatoryerwyyee3" cx="0.5" cy="0.5" fx="0.9" fy="0.9" r="1" x1="0%" x2="0%" y1="100%" y2="0%" spreadMethod="pad"><stop offset="0%" stop-color="#C32F06" stop-opacity="1"/><stop offset="100%" stop-color="#C32F06" stop-opacity="1"/></radialGradient><radialGradient id="g-decisionyerwyyee3" cx="0.5" cy="0.5" fx="0.9" fy="0.9" r="1" x1="0%" x2="0%" y1="100%" y2="0%" spreadMethod="pad"><stop offset="0%" stop-color="#d1461b" stop-opacity="1"/><stop offset="100%" stop-color="#d1461b" stop-opacity="1"/></radialGradient><radialGradient id="g-processyerwyyee3" cx="0.5" cy="0.5" fx="0.9" fy="0.9" r="1" x1="0%" x2="0%" y1="100%" y2="0%" spreadMethod="pad"><stop offset="0%" stop-color="#3f51b5" stop-opacity="1"/><stop offset="100%" stop-color="#3f51b5" stop-opacity="1"/></radialGradient><radialGradient id="g-defaultyerwyyee3" cx="0.5" cy="0.5" fx="0.9" fy="0.9" r="1" x1="0%" x2="0%" y1="100%" y2="0%" spreadMethod="pad"><stop offset="0%" stop-color="#005100" stop-opacity="1"/><stop offset="100%" stop-color="#005100" stop-opacity="1"/></radialGradient><radialGradient id="g-moduleyerwyyee3" cx="0.5" cy="0.5" fx="0.9" fy="0.9" r="1" x1="0%" x2="0%" y1="100%" y2="0%" spreadMethod="pad"><stop offset="0%" stop-color="#009688" stop-opacity="1"/><stop offset="100%" stop-color="#009688" stop-opacity="1"/></radialGradient><radialGradient id="g-dataioyerwyyee3" cx="0.5" cy="0.5" fx="0.9" fy="0.9" r="1" x1="0%" x2="0%" y1="100%" y2="0%" spreadMethod="pad"><stop offset="0%" stop-color="#607d8b" stop-opacity="1"/><stop offset="100%" stop-color="#607d8b" stop-opacity="1"/></radialGradient><radialGradient id="g-preparationyerwyyee3" cx="0.5" cy="0.5" fx="0.9" fy="0.9" r="1" x1="0%" x2="0%" y1="100%" y2="0%" spreadMethod="pad"><stop offset="0%" stop-color="#607d8b" stop-opacity="1"/><stop offset="100%" stop-color="#607d8b" stop-opacity="1"/></radialGradient><radialGradient id="g-commentyerwyyee3" cx="0.5" cy="0.5" fx="0.9" fy="0.9" r="1" x1="0%" x2="0%" y1="100%" y2="0%" spreadMethod="pad"><stop offset="0%" stop-color="#ffab40" stop-opacity="1"/><stop offset="100%" stop-color="#ffab40" stop-opacity="1"/></radialGradient><radialGradient id="g-manualyerwyyee3" cx="0.5" cy="0.5" fx="0.9" fy="0.9" r="1" x1="0%" x2="0%" y1="100%" y2="0%" spreadMethod="pad"><stop offset="0%" stop-color="#673ab7" stop-opacity="1"/><stop offset="100%" stop-color="#673ab7" stop-opacity="1"/></radialGradient></defs><g id="page0,1_graph0" class="graph" transform="scale(1 1) rotate(0) translate(4 647.6)"><title>FlowChart</title><!-- terminator_block_1 --><g id="node1" class="node"><title>terminator_block_1</title><ellipse fill="url(#g-terminatoryerwyyee3)" stroke="#C32F06" cx="401" cy="-625.6" rx="76.5524" ry="18"/><text text-anchor="start" x="344" y="-623.1" font-family="Open Sans, Noto Sans SC, Noto Sans TC, Noto Sans JP, Noto Sans KR" font-size="10.00" fill="white">public String statement()</text></g><!-- process_block_2 --><g id="node2" class="node"><title>process_block_2</title><polygon fill="url(#g-processyerwyyee3)" stroke="#3f51b5" points="518.5,-580.6 283.5,-580.6 283.5,-544.6 518.5,-544.6 518.5,-580.6"/><text text-anchor="start" x="290.5" y="-560.1" font-family="Open Sans, Noto Sans SC, Noto Sans TC, Noto Sans JP, Noto Sans KR" font-size="10.00" fill="white">_result = "Rental Record for " + getName() + "\n"</text></g><!-- terminator_block_1&#45;&gt;process_block_2 --><g id="edge1" class="edge"><title>terminator_block_1->process_block_2</title><path fill="none" stroke="#000000" d="M401,-607.378C401,-602.329 401,-596.723 401,-591.234"/><polygon fill="#000000" stroke="#000000" points="404.5,-590.999 401,-581 397.5,-591 404.5,-590.999"/></g><!-- process_block_3 --><g id="node3" class="node"><title>process_block_3</title><polygon fill="url(#g-processyerwyyee3)" stroke="#3f51b5" points="505,-517.6 297,-517.6 297,-481.6 505,-481.6 505,-517.6"/><text text-anchor="start" x="304" y="-497.1" font-family="Open Sans, Noto Sans SC, Noto Sans TC, Noto Sans JP, Noto Sans KR" font-size="10.00" fill="white">Enumeration rentals = _rentals.elements()</text></g><!-- process_block_2&#45;&gt;process_block_3 --><g id="edge2" class="edge"><title>process_block_2->process_block_3</title><path fill="none" stroke="#000000" d="M401,-544.378C401,-539.329 401,-533.723 401,-528.234"/><polygon fill="#000000" stroke="#000000" points="404.5,-527.999 401,-518 397.5,-528 404.5,-527.999"/></g><!-- nop_block_4 --><g id="node4" class="node"><title>nop_block_4</title><ellipse fill="#000000" stroke="#000000" cx="401" cy="-452.8" rx="1.8" ry="1.8"/><text text-anchor="start" x="397.2" y="-458.6" font-family="Open Sans, Noto Sans SC, Noto Sans TC, Noto Sans JP, Noto Sans KR" font-weight="bold" font-size="10.00" fill="#000000"> </text></g><!-- process_block_3&#45;&gt;nop_block_4 --><g id="edge3" class="edge"><title>process_block_3->nop_block_4</title><path fill="none" stroke="#000000" d="M401,-481.372C401,-471.106 401,-459.442 401,-454.83"/></g><!-- ifs_block_5 --><g id="node5" class="node"><title>ifs_block_5</title><polygon fill="url(#g-decisionyerwyyee3)" stroke="#d1461b" points="258,-424 140.736,-406 258,-388 375.264,-406 258,-424"/><text text-anchor="start" x="195.5" y="-403.5" font-family="Open Sans, Noto Sans SC, Noto Sans TC, Noto Sans JP, Noto Sans KR" font-size="10.00" fill="white">rentals.hasMoreElements()</text></g><!-- nop_block_4&#45;&gt;ifs_block_5 --><g id="edge10" class="edge"><title>nop_block_4->ifs_block_5</title><path fill="none" stroke="#000000" d="M398.979,-452.138C388.788,-448.803 342.089,-433.52 305.192,-421.445"/><polygon fill="#000000" stroke="#000000" points="306.161,-418.079 295.569,-418.295 303.984,-424.732 306.161,-418.079"/></g><!-- process_block_6 --><g id="node6" class="node"><title>process_block_6</title><polygon fill="url(#g-processyerwyyee3)" stroke="#3f51b5" points="216,-351 0,-351 0,-315 216,-315 216,-351"/><text text-anchor="start" x="7" y="-330.5" font-family="Open Sans, Noto Sans SC, Noto Sans TC, Noto Sans JP, Noto Sans KR" font-size="10.00" fill="white">Rental each = (Rental) rentals.nextElement()</text></g><!-- ifs_block_5&#45;&gt;process_block_6 --><g id="edge4" class="edge"><title>ifs_block_5->process_block_6</title><path fill="none" stroke="#000000" d="M229.786,-392.269C208.565,-381.942 179.023,-367.565 154.35,-355.557"/><polygon fill="#000000" stroke="#000000" points="155.683,-352.313 145.16,-351.084 152.62,-358.608 155.683,-352.313"/><text text-anchor="start" x="192" y="-368" font-family="Open Sans, Noto Sans SC, Noto Sans TC, Noto Sans JP, Noto Sans KR" font-weight="bold" font-size="10.00" fill="#000000"> True </text><polyline fill="none" stroke="#000000" points="220,-364 173.562,-364 "/></g><!-- process_block_12 --><g id="node12" class="node"><title>process_block_12</title><polygon fill="url(#g-processyerwyyee3)" stroke="#3f51b5" points="375,-351 281,-351 281,-315 375,-315 375,-351"/><text text-anchor="start" x="288" y="-330.5" font-family="Open Sans, Noto Sans SC, Noto Sans TC, Noto Sans JP, Noto Sans KR" font-size="10.00" fill="white">resultfooterLine()</text></g><!-- ifs_block_5&#45;&gt;process_block_12 --><g id="edge12" class="edge"><title>ifs_block_5->process_block_12</title><path fill="none" stroke="#000000" d="M273.189,-390.16C282.055,-380.914 293.449,-369.032 303.55,-358.498"/><polygon fill="#000000" stroke="#000000" points="306.227,-360.763 310.622,-351.123 301.175,-355.918 306.227,-360.763"/><text text-anchor="start" x="298" y="-368" font-family="Open Sans, Noto Sans SC, Noto Sans TC, Noto Sans JP, Noto Sans KR" font-weight="bold" font-size="10.00" fill="#000000"> False </text><polyline fill="none" stroke="#000000" points="328,-364 297.757,-364 "/></g><!-- process_block_7 --><g id="node7" class="node"><title>process_block_7</title><polygon fill="url(#g-processyerwyyee3)" stroke="#3f51b5" points="223.5,-288 66.5,-288 66.5,-252 223.5,-252 223.5,-288"/><text text-anchor="start" x="73.5" y="-267.5" font-family="Open Sans, Noto Sans SC, Noto Sans TC, Noto Sans JP, Noto Sans KR" font-size="10.00" fill="white">Movie movie = each.getMovie()</text></g><!-- process_block_6&#45;&gt;process_block_7 --><g id="edge5" class="edge"><title>process_block_6->process_block_7</title><path fill="none" stroke="#000000" d="M118.702,-314.778C121.895,-309.34 125.468,-303.257 128.926,-297.369"/><polygon fill="#000000" stroke="#000000" points="132.148,-298.795 134.194,-288.4 126.112,-295.25 132.148,-298.795"/></g><!-- process_block_8 --><g id="node8" class="node"><title>process_block_8</title><polygon fill="url(#g-processyerwyyee3)" stroke="#3f51b5" points="346.5,-225 115.5,-225 115.5,-189 346.5,-189 346.5,-225"/><text text-anchor="start" x="122.5" y="-204.5" font-family="Open Sans, Noto Sans SC, Noto Sans TC, Noto Sans JP, Noto Sans KR" font-size="10.00" fill="white">double thisAmount = each.determineAmount()</text></g><!-- process_block_7&#45;&gt;process_block_8 --><g id="edge6" class="edge"><title>process_block_7->process_block_8</title><path fill="none" stroke="#000000" d="M169.875,-251.778C178.61,-245.378 188.568,-238.084 197.873,-231.268"/><polygon fill="#000000" stroke="#000000" points="200.182,-233.914 206.181,-225.181 196.046,-228.267 200.182,-233.914"/></g><!-- process_block_9 --><g id="node9" class="node"><title>process_block_9</title><polygon fill="url(#g-processyerwyyee3)" stroke="#3f51b5" points="331.5,-162 212.5,-162 212.5,-126 331.5,-126 331.5,-162"/><text text-anchor="start" x="219.5" y="-141.5" font-family="Open Sans, Noto Sans SC, Noto Sans TC, Noto Sans JP, Noto Sans KR" font-size="10.00" fill="white">addRenterPoints(each)</text></g><!-- process_block_8&#45;&gt;process_block_9 --><g id="edge7" class="edge"><title>process_block_8->process_block_9</title><path fill="none" stroke="#000000" d="M242.859,-188.778C246.482,-183.211 250.545,-176.967 254.462,-170.949"/><polygon fill="#000000" stroke="#000000" points="257.505,-172.69 260.026,-162.4 251.638,-168.872 257.505,-172.69"/></g><!-- process_block_10 --><g id="node10" class="node"><title>process_block_10</title><polygon fill="url(#g-processyerwyyee3)" stroke="#3f51b5" points="370.5,-99 227.5,-99 227.5,-63 370.5,-63 370.5,-99"/><text text-anchor="start" x="234.5" y="-78.5" font-family="Open Sans, Noto Sans SC, Noto Sans TC, Noto Sans JP, Noto Sans KR" font-size="10.00" fill="white">totalAmount += thisAmount</text></g><!-- process_block_9&#45;&gt;process_block_10 --><g id="edge8" class="edge"><title>process_block_9->process_block_10</title><path fill="none" stroke="#000000" d="M279.81,-125.778C282.084,-120.47 284.623,-114.546 287.09,-108.79"/><polygon fill="#000000" stroke="#000000" points="290.392,-109.97 291.114,-99.3995 283.958,-107.212 290.392,-109.97"/></g><!-- process_block_11 --><g id="node11" class="node"><title>process_block_11</title><polygon fill="url(#g-processyerwyyee3)" stroke="#3f51b5" points="586,-36 238,-36 238,-0 586,-0 586,-36"/><text text-anchor="start" x="245" y="-15.5" font-family="Open Sans, Noto Sans SC, Noto Sans TC, Noto Sans JP, Noto Sans KR" font-size="10.00" fill="white">_result += "\t" + movie.getTitle()+ "\t" + String.valueOf(thisAmount) + "\n"</text></g><!-- process_block_10&#45;&gt;process_block_11 --><g id="edge9" class="edge"><title>process_block_10->process_block_11</title><path fill="none" stroke="#000000" d="M331.381,-62.9467C343.675,-56.0928 357.844,-48.1934 370.841,-40.9472"/><polygon fill="#000000" stroke="#000000" points="372.584,-43.9825 379.614,-36.0559 369.175,-37.8685 372.584,-43.9825"/></g><!-- process_block_11&#45;&gt;nop_block_4 --><g id="edge11" class="edge"><title>process_block_11->nop_block_4</title><path fill="none" stroke="#000000" d="M444.286,-36.1816C458.918,-46.9989 473,-62.274 473,-81 473,-406 473,-406 473,-406 473,-434.262 433.519,-446.331 413.028,-450.691"/><polygon fill="#000000" stroke="#000000" points="412.284,-447.269 403.077,-452.511 413.544,-454.154 412.284,-447.269"/></g><!-- terminator_block_13 --><g id="node13" class="node"><title>terminator_block_13</title><ellipse fill="url(#g-terminatoryerwyyee3)" stroke="#C32F06" cx="328" cy="-270" rx="27.8353" ry="18"/><text text-anchor="start" x="312.5" y="-267.5" font-family="Open Sans, Noto Sans SC, Noto Sans TC, Noto Sans JP, Noto Sans KR" font-size="10.00" fill="white">_result</text></g><!-- process_block_12&#45;&gt;terminator_block_13 --><g id="edge13" class="edge"><title>process_block_12->terminator_block_13</title><path fill="none" stroke="#000000" d="M328,-314.778C328,-309.729 328,-304.123 328,-298.634"/><polygon fill="#000000" stroke="#000000" points="331.5,-298.399 328,-288.4 324.5,-298.4 331.5,-298.399"/></g></g></svg>